<mxfile host="app.diagrams.net" agent="Mozilla/5.0 (Windows NT 10.0; Win64; x64) AppleWebKit/537.36 (KHTML, like Gecko) Chrome/139.0.0.0 Safari/537.36 Edg/139.0.0.0" version="28.1.2">
  <diagram id="Sf1imvJlJZseMTBfaoV0" name="Pagina-1">
    <mxGraphModel dx="1034" dy="1747" grid="1" gridSize="10" guides="1" tooltips="1" connect="1" arrows="1" fold="1" page="1" pageScale="1" pageWidth="827" pageHeight="1169" math="0" shadow="0">
      <root>
        <mxCell id="0" />
        <mxCell id="1" parent="0" />
        <mxCell id="9Rwsw5W1wl3HAm9mCzP2-1" value="l2: Attending Physician" style="rounded=0;whiteSpace=wrap;html=1;fillColor=#fad7ac;strokeColor=#b46504;" parent="1" vertex="1">
          <mxGeometry x="140" y="360" width="130" height="60" as="geometry" />
        </mxCell>
        <mxCell id="9Rwsw5W1wl3HAm9mCzP2-2" value="" style="endArrow=classic;html=1;rounded=0;exitX=0.5;exitY=1;exitDx=0;exitDy=0;entryX=0.5;entryY=0;entryDx=0;entryDy=0;" parent="1" source="9Rwsw5W1wl3HAm9mCzP2-35" target="9Rwsw5W1wl3HAm9mCzP2-17" edge="1">
          <mxGeometry width="50" height="50" relative="1" as="geometry">
            <mxPoint x="395" y="295" as="sourcePoint" />
            <mxPoint x="445" y="245" as="targetPoint" />
          </mxGeometry>
        </mxCell>
        <mxCell id="9Rwsw5W1wl3HAm9mCzP2-7" value="" style="endArrow=classic;html=1;rounded=0;exitX=0;exitY=0;exitDx=97.5;exitDy=60;entryX=0.5;entryY=0;entryDx=0;entryDy=0;exitPerimeter=0;" parent="1" source="9Rwsw5W1wl3HAm9mCzP2-39" target="9Rwsw5W1wl3HAm9mCzP2-8" edge="1">
          <mxGeometry width="50" height="50" relative="1" as="geometry">
            <mxPoint x="390" y="705" as="sourcePoint" />
            <mxPoint x="245" y="795" as="targetPoint" />
          </mxGeometry>
        </mxCell>
        <mxCell id="9Rwsw5W1wl3HAm9mCzP2-8" value="" style="shape=sumEllipse;perimeter=ellipsePerimeter;whiteSpace=wrap;html=1;backgroundOutline=1;fillColor=#fad9d5;strokeColor=#ae4132;" parent="1" vertex="1">
          <mxGeometry x="384" y="650" width="30" height="30" as="geometry" />
        </mxCell>
        <mxCell id="9Rwsw5W1wl3HAm9mCzP2-9" value="" style="endArrow=none;dashed=1;html=1;dashPattern=1 3;strokeWidth=2;rounded=0;entryX=1;entryY=0.5;entryDx=0;entryDy=0;entryPerimeter=0;fillColor=#b0e3e6;strokeColor=#0e8088;" parent="1" target="9Rwsw5W1wl3HAm9mCzP2-16" edge="1">
          <mxGeometry width="50" height="50" relative="1" as="geometry">
            <mxPoint x="660" y="475" as="sourcePoint" />
            <mxPoint x="445" y="145" as="targetPoint" />
            <Array as="points">
              <mxPoint x="660" y="320" />
              <mxPoint x="660" y="145" />
            </Array>
          </mxGeometry>
        </mxCell>
        <mxCell id="9Rwsw5W1wl3HAm9mCzP2-10" value="" style="endArrow=none;dashed=1;html=1;dashPattern=1 3;strokeWidth=2;rounded=0;exitX=1;exitY=0.5;exitDx=0;exitDy=0;fillColor=#b0e3e6;strokeColor=#0e8088;exitPerimeter=0;" parent="1" source="9Rwsw5W1wl3HAm9mCzP2-39" edge="1">
          <mxGeometry width="50" height="50" relative="1" as="geometry">
            <mxPoint x="460" y="675" as="sourcePoint" />
            <mxPoint x="660" y="480" as="targetPoint" />
            <Array as="points">
              <mxPoint x="660" y="570" />
            </Array>
          </mxGeometry>
        </mxCell>
        <mxCell id="9Rwsw5W1wl3HAm9mCzP2-11" value="&amp;lt;&amp;lt;delay&amp;gt;&amp;gt;&lt;br&gt;2 minutes" style="shape=note;whiteSpace=wrap;html=1;backgroundOutline=1;darkOpacity=0.05;size=15;fillColor=#b0e3e6;strokeColor=#0e8088;" parent="1" vertex="1">
          <mxGeometry x="620" y="250" width="90" height="50" as="geometry" />
        </mxCell>
        <mxCell id="9Rwsw5W1wl3HAm9mCzP2-12" value="&amp;lt;&amp;lt;frequency&amp;gt;&amp;gt;&lt;br&gt;16000 / day" style="shape=note;whiteSpace=wrap;html=1;backgroundOutline=1;darkOpacity=0.05;size=15;fillColor=#d5e8d4;strokeColor=#82b366;" parent="1" vertex="1">
          <mxGeometry x="395" y="-10" width="165" height="50" as="geometry" />
        </mxCell>
        <mxCell id="9Rwsw5W1wl3HAm9mCzP2-13" value="" style="endArrow=none;dashed=1;html=1;dashPattern=1 3;strokeWidth=2;rounded=0;entryX=0.5;entryY=1;entryDx=0;entryDy=0;entryPerimeter=0;fillColor=#d5e8d4;strokeColor=#82b366;" parent="1" target="9Rwsw5W1wl3HAm9mCzP2-12" edge="1">
          <mxGeometry width="50" height="50" relative="1" as="geometry">
            <mxPoint x="478" y="120" as="sourcePoint" />
            <mxPoint x="445" y="245" as="targetPoint" />
            <Array as="points" />
          </mxGeometry>
        </mxCell>
        <mxCell id="9Rwsw5W1wl3HAm9mCzP2-14" value="&amp;lt;&amp;lt;complexity&amp;gt;&amp;gt;&lt;br&gt;low" style="shape=note;whiteSpace=wrap;html=1;backgroundOutline=1;darkOpacity=0.05;size=15;fillColor=#b1ddf0;strokeColor=#10739e;" parent="1" vertex="1">
          <mxGeometry x="140" y="125" width="120" height="50" as="geometry" />
        </mxCell>
        <mxCell id="9Rwsw5W1wl3HAm9mCzP2-16" value="A1 - Send Threshold Alert" style="html=1;shape=mxgraph.infographic.ribbonSimple;notch1=20;notch2=0;align=center;verticalAlign=middle;fontSize=14;fontStyle=0;fillColor=#fad9d5;flipH=0;spacingRight=0;spacingLeft=14;whiteSpace=wrap;strokeColor=#ae4132;" parent="1" vertex="1">
          <mxGeometry x="304.38" y="125" width="180" height="40" as="geometry" />
        </mxCell>
        <mxCell id="9Rwsw5W1wl3HAm9mCzP2-17" value="A2 - Get Patient Attending Physician" style="rounded=1;whiteSpace=wrap;html=1;fillColor=#fad9d5;strokeColor=#ae4132;" parent="1" vertex="1">
          <mxGeometry x="325" y="360" width="140" height="60" as="geometry" />
        </mxCell>
        <mxCell id="9Rwsw5W1wl3HAm9mCzP2-22" value="" style="endArrow=classic;html=1;rounded=0;exitX=1;exitY=0.5;exitDx=0;exitDy=0;entryX=0;entryY=0.5;entryDx=0;entryDy=0;" parent="1" source="9Rwsw5W1wl3HAm9mCzP2-1" target="9Rwsw5W1wl3HAm9mCzP2-17" edge="1">
          <mxGeometry width="50" height="50" relative="1" as="geometry">
            <mxPoint x="265" y="310" as="sourcePoint" />
            <mxPoint x="265" y="340" as="targetPoint" />
          </mxGeometry>
        </mxCell>
        <mxCell id="9Rwsw5W1wl3HAm9mCzP2-23" value="&amp;lt;&amp;lt;datastore&amp;gt;&amp;gt;&lt;div&gt;l2.1: Attending Physician&lt;/div&gt;" style="rounded=0;whiteSpace=wrap;html=1;fillColor=#fad7ac;strokeColor=#b46504;" parent="1" vertex="1">
          <mxGeometry x="135" y="270" width="140" height="60" as="geometry" />
        </mxCell>
        <mxCell id="9Rwsw5W1wl3HAm9mCzP2-24" value="" style="endArrow=classic;html=1;rounded=0;exitX=0.5;exitY=1;exitDx=0;exitDy=0;entryX=0.5;entryY=0;entryDx=0;entryDy=0;" parent="1" source="9Rwsw5W1wl3HAm9mCzP2-23" target="9Rwsw5W1wl3HAm9mCzP2-1" edge="1">
          <mxGeometry width="50" height="50" relative="1" as="geometry">
            <mxPoint x="155" y="325" as="sourcePoint" />
            <mxPoint x="200" y="325" as="targetPoint" />
          </mxGeometry>
        </mxCell>
        <mxCell id="9Rwsw5W1wl3HAm9mCzP2-32" value="" style="strokeWidth=2;html=1;shape=mxgraph.flowchart.start_2;whiteSpace=wrap;fillColor=#f8cecc;strokeColor=#b85450;" parent="1" vertex="1">
          <mxGeometry x="379.38" y="60" width="30.62" height="30" as="geometry" />
        </mxCell>
        <mxCell id="9Rwsw5W1wl3HAm9mCzP2-33" value="" style="endArrow=classic;html=1;rounded=0;exitX=0.5;exitY=1;exitDx=0;exitDy=0;exitPerimeter=0;entryX=0;entryY=0;entryDx=90;entryDy=0;entryPerimeter=0;" parent="1" source="9Rwsw5W1wl3HAm9mCzP2-32" target="9Rwsw5W1wl3HAm9mCzP2-16" edge="1">
          <mxGeometry width="50" height="50" relative="1" as="geometry">
            <mxPoint x="385" y="110" as="sourcePoint" />
            <mxPoint x="386" y="160" as="targetPoint" />
          </mxGeometry>
        </mxCell>
        <mxCell id="9Rwsw5W1wl3HAm9mCzP2-34" value="l1.1: Threshold" style="rounded=0;whiteSpace=wrap;html=1;fillColor=#fad7ac;strokeColor=#b46504;" parent="1" vertex="1">
          <mxGeometry x="330" y="190" width="130" height="60" as="geometry" />
        </mxCell>
        <mxCell id="9Rwsw5W1wl3HAm9mCzP2-35" value="l1.2: Patient" style="rounded=0;whiteSpace=wrap;html=1;fillColor=#fad7ac;strokeColor=#b46504;" parent="1" vertex="1">
          <mxGeometry x="330" y="270" width="130" height="60" as="geometry" />
        </mxCell>
        <mxCell id="9Rwsw5W1wl3HAm9mCzP2-36" value="" style="endArrow=classic;html=1;rounded=0;exitX=0;exitY=0;exitDx=90;exitDy=40;entryX=0.5;entryY=0;entryDx=0;entryDy=0;exitPerimeter=0;" parent="1" source="9Rwsw5W1wl3HAm9mCzP2-16" target="9Rwsw5W1wl3HAm9mCzP2-34" edge="1">
          <mxGeometry width="50" height="50" relative="1" as="geometry">
            <mxPoint x="500" y="210" as="sourcePoint" />
            <mxPoint x="500" y="250" as="targetPoint" />
          </mxGeometry>
        </mxCell>
        <mxCell id="9Rwsw5W1wl3HAm9mCzP2-37" value="" style="endArrow=classic;html=1;rounded=0;exitX=0.5;exitY=1;exitDx=0;exitDy=0;entryX=0.5;entryY=0;entryDx=0;entryDy=0;" parent="1" source="9Rwsw5W1wl3HAm9mCzP2-34" target="9Rwsw5W1wl3HAm9mCzP2-35" edge="1">
          <mxGeometry width="50" height="50" relative="1" as="geometry">
            <mxPoint x="500" y="270" as="sourcePoint" />
            <mxPoint x="500" y="310" as="targetPoint" />
          </mxGeometry>
        </mxCell>
        <mxCell id="9Rwsw5W1wl3HAm9mCzP2-38" value="l3: Threshold Alert" style="rounded=0;whiteSpace=wrap;html=1;fillColor=#fad7ac;strokeColor=#b46504;" parent="1" vertex="1">
          <mxGeometry x="330" y="440" width="130" height="60" as="geometry" />
        </mxCell>
        <mxCell id="9Rwsw5W1wl3HAm9mCzP2-39" value="A3 - Notify Attending Physician with Patient Contact Info" style="html=1;shape=mxgraph.infographic.ribbonSimple;notch1=0;notch2=20;align=center;verticalAlign=middle;fontSize=14;fontStyle=0;fillColor=#f8cecc;whiteSpace=wrap;strokeColor=#b85450;" parent="1" vertex="1">
          <mxGeometry x="300" y="540" width="219.38" height="60" as="geometry" />
        </mxCell>
        <mxCell id="9Rwsw5W1wl3HAm9mCzP2-41" value="" style="endArrow=classic;html=1;rounded=0;exitX=0.5;exitY=1;exitDx=0;exitDy=0;entryX=0.5;entryY=0;entryDx=0;entryDy=0;" parent="1" source="9Rwsw5W1wl3HAm9mCzP2-17" target="9Rwsw5W1wl3HAm9mCzP2-38" edge="1">
          <mxGeometry width="50" height="50" relative="1" as="geometry">
            <mxPoint x="500" y="440" as="sourcePoint" />
            <mxPoint x="500" y="470" as="targetPoint" />
          </mxGeometry>
        </mxCell>
        <mxCell id="9Rwsw5W1wl3HAm9mCzP2-42" value="" style="endArrow=classic;html=1;rounded=0;exitX=0.5;exitY=1;exitDx=0;exitDy=0;entryX=0;entryY=0;entryDx=97.5;entryDy=0;entryPerimeter=0;" parent="1" source="9Rwsw5W1wl3HAm9mCzP2-38" target="9Rwsw5W1wl3HAm9mCzP2-39" edge="1">
          <mxGeometry width="50" height="50" relative="1" as="geometry">
            <mxPoint x="500" y="470" as="sourcePoint" />
            <mxPoint x="500" y="500" as="targetPoint" />
          </mxGeometry>
        </mxCell>
      </root>
    </mxGraphModel>
  </diagram>
</mxfile>
